# xmcd
#
# Track frame offsets:
#	150
#	14557
#	33655
#	51328
#	65928
#	79171
#	94208
#	107227
#	126354
#	142116
#	156523
#	175621
#	193294
#	207894
#	221137
#	236174
#	249193
#	268320
#
# Disc length: 3787 seconds
#
# Revision: 1
# Processed by: cddbd v1.5.2PL0 Copyright (c) Steve Scherf et al.
# Submitted via: audiograbber 1.83.01
#
DISCID=240ec912
DTITLE=Various Artist - PHMC0913
DYEAR=2013
DGENRE=Country Karaoke
TTITLE0=Dylan Scott - Makin' This Boy Go Crazy
TTITLE1=Lonestar - Maybe Someday
TTITLE2=Live Wire - Whiskey Sunday
TTITLE3=Elizabeth Lyons - Everything Tonight
TTITLE4=Breelan Angel - It's My Turn
TTITLE5=Clinton Gregory - You Smile
TTITLE6=Lindsay Brandt - Call Me Red
TTITLE7=Greg Susoreny - Gently Breathe
TTITLE8=Steve Richard - Keep On Rollin'
TTITLE9=Dylan Scott - Makin' This Boy Go Crazy (Vocals)
TTITLE10=Lonestar - Maybe Someday (Vocals)
TTITLE11=Live Wire - Whiskey Sunday (Vocals)
TTITLE12=Elizabeth Lyons - Everything Tonight (Vocals)
TTITLE13=Breelan Angel - It's My Turn (Vocals)
TTITLE14=Clinton Gregory - You Smile (Vocals)
TTITLE15=Lindsay Brandt - Call Me Red (Vocals)
TTITLE16=Greg Susoreny - Gently Breathe (Vocals)
TTITLE17=Steve Richard - Keep On Rollin' (Vocals)
EXTD=
EXTT0=
EXTT1=
EXTT2=
EXTT3=
EXTT4=
EXTT5=
EXTT6=
EXTT7=
EXTT8=
EXTT9=
EXTT10=
EXTT11=
EXTT12=
EXTT13=
EXTT14=
EXTT15=
EXTT16=
EXTT17=
PLAYORDER=
